<svg width="24" height="20" viewBox="0 0 24 20" fill="none" xmlns="http://www.w3.org/2000/svg">
<mask id="mask0" mask-type="alpha" maskUnits="userSpaceOnUse" x="0" y="0" width="24" height="20">
<rect width="24" height="20" fill="#C4C4C4"/>
</mask>
<g mask="url(#mask0)">
<path fill-rule="evenodd" clip-rule="evenodd" d="M2.84146 1.15854C2.37673 1.62327 2.37673 2.37673 2.84146 2.84146L10.3171 10.3171L3.15854 17.4756C2.69382 17.9404 2.69382 18.6938 3.15854 19.1585C3.62327 19.6233 4.37673 19.6233 4.84146 19.1585L12 12L19.1584 19.1584C19.6231 19.6231 20.3766 19.6231 20.8413 19.1584C21.306 18.6937 21.306 17.9402 20.8413 17.4755L13.6829 10.3171L21.1584 2.84161C21.6231 2.37689 21.6231 1.62342 21.1584 1.1587C20.6937 0.693975 19.9402 0.693977 19.4755 1.1587L12 8.63417L4.52437 1.15854C4.05965 0.693819 3.30618 0.69382 2.84146 1.15854Z" fill="#525862"/>
</g>
</svg>
