<svg width="215" height="23" viewBox="0 0 215 23" fill="none" xmlns="http://www.w3.org/2000/svg">
<path d="M20.02 11.32C20.02 13.12 19.68 14.72 19 16.12C18.32 17.52 17.4 18.64 16.24 19.48C15.1 20.32 13.84 20.95 12.46 21.37C11.08 21.79 9.63 22 8.11 22H0.19V0.76H7.87C9.13 0.76 10.32 0.87 11.44 1.09C12.58 1.29 13.68 1.65 14.74 2.17C15.8 2.69 16.71 3.34 17.47 4.12C18.25 4.9 18.87 5.91 19.33 7.15C19.79 8.37 20.02 9.76 20.02 11.32ZM14.68 11.32C14.68 10.18 14.49 9.2 14.11 8.38C13.73 7.54 13.2 6.89 12.52 6.43C11.86 5.97 11.13 5.64 10.33 5.44C9.55 5.24 8.69 5.14 7.75 5.14H5.2V17.56H7.63C9.69 17.56 11.38 17.07 12.7 16.09C14.02 15.11 14.68 13.52 14.68 11.32ZM34.3424 22H19.5224V0.76H33.8024V5.11H24.4724V9.1H33.2924V13.21H24.4724V17.62H34.3424V22ZM51.2151 22H45.2151L40.6251 13.57H38.8851V22H33.8451V0.76H41.9451C43.0251 0.76 44.0251 0.87 44.9451 1.09C45.8651 1.31 46.7251 1.66 47.5251 2.14C48.3251 2.62 48.9451 3.29 49.3851 4.15C49.8451 5.01 50.0751 6.02 50.0751 7.18C50.0751 8.58 49.6851 9.78 48.9051 10.78C48.1251 11.78 47.0451 12.49 45.6651 12.91L51.2151 22ZM45.0051 7.27C45.0051 5.69 43.8651 4.9 41.5851 4.9H38.8551V9.85H41.2851C43.7651 9.85 45.0051 8.99 45.0051 7.27ZM64.6577 22H49.8377V0.76H64.1177V5.11H54.7877V9.1H63.6077V13.21H54.7877V17.62H64.6577V22ZM82.8803 0.76L74.6903 22H69.5603L61.5203 0.76H67.2803L72.2003 15.82H72.3203L77.2103 0.76H82.8803ZM99.1895 0.76L91.0295 13V22H85.8995V13L77.9195 0.76H84.1295L88.6595 8.62L93.1895 0.76H99.1895ZM115.191 22H109.491L107.841 17.83H99.6208L98.0608 22H92.4808L101.391 0.76H106.371L115.191 22ZM106.431 13.72L103.791 6.43L101.091 13.72H106.431ZM132.366 22H126.546L117.996 8.11H117.906L118.026 22H113.046V0.76H118.896L127.416 14.62H127.506L127.386 0.76H132.366V22ZM147.337 2.83L144.067 6.28C143.647 5.74 143.077 5.3 142.357 4.96C141.657 4.62 140.967 4.45 140.287 4.45C139.487 4.45 138.787 4.62 138.187 4.96C137.607 5.28 137.317 5.82 137.317 6.58C137.317 6.92 137.387 7.22 137.527 7.48C137.667 7.72 137.897 7.94 138.217 8.14C138.557 8.32 138.887 8.48 139.207 8.62C139.527 8.74 139.987 8.89 140.587 9.07C141.367 9.33 141.977 9.54 142.417 9.7C142.857 9.86 143.417 10.13 144.097 10.51C144.797 10.87 145.337 11.25 145.717 11.65C146.097 12.05 146.437 12.59 146.737 13.27C147.037 13.93 147.187 14.66 147.187 15.46C147.187 17.76 146.397 19.52 144.817 20.74C143.257 21.94 141.337 22.54 139.057 22.54C137.517 22.54 136.037 22.27 134.617 21.73C133.197 21.19 132.027 20.44 131.107 19.48L134.467 16.06C134.987 16.72 135.667 17.26 136.507 17.68C137.367 18.1 138.217 18.31 139.057 18.31C139.917 18.31 140.617 18.13 141.157 17.77C141.717 17.39 141.997 16.8 141.997 16C141.997 15.68 141.917 15.4 141.757 15.16C141.617 14.9 141.457 14.69 141.277 14.53C141.097 14.35 140.777 14.16 140.317 13.96C139.857 13.76 139.467 13.61 139.147 13.51C138.827 13.39 138.307 13.21 137.587 12.97C136.807 12.71 136.137 12.44 135.577 12.16C135.017 11.88 134.457 11.51 133.897 11.05C133.337 10.59 132.907 10.01 132.607 9.31C132.307 8.61 132.157 7.8 132.157 6.88C132.157 5.76 132.397 4.76 132.877 3.88C133.357 2.98 133.997 2.28 134.797 1.78C135.597 1.26 136.467 0.869998 137.407 0.609998C138.367 0.349999 139.357 0.22 140.377 0.22C141.617 0.22 142.857 0.45 144.097 0.91C145.357 1.35 146.437 1.99 147.337 2.83ZM166.352 22H159.662L151.772 12.22H151.712V22H146.672V0.76H151.712V9.4H151.802L159.392 0.76H165.812L156.662 10.54L166.352 22ZM183.849 22H178.149L176.499 17.83H168.279L166.719 22H161.139L170.049 0.76H175.029L183.849 22ZM175.089 13.72L172.449 6.43L169.749 13.72H175.089ZM198.397 0.76L190.237 13V22H185.107V13L177.127 0.76H183.337L187.867 8.62L192.397 0.76H198.397ZM214.398 22H208.698L207.048 17.83H198.828L197.268 22H191.688L200.598 0.76H205.578L214.398 22ZM205.638 13.72L202.998 6.43L200.298 13.72H205.638Z" fill="#525862"/>
</svg>
