<svg width="24" height="20" viewBox="0 0 24 20" fill="none" xmlns="http://www.w3.org/2000/svg">
<path fill-rule="evenodd" clip-rule="evenodd" d="M0.000976562 1.19048C0.000976562 0.532995 0.533971 0 1.19145 0H22.62C23.2775 0 23.8105 0.532995 23.8105 1.19048C23.8105 1.84796 23.2775 2.38095 22.62 2.38095H1.19145C0.533971 2.38095 0.000976562 1.84796 0.000976562 1.19048ZM0 9.52397C0 8.86649 0.532994 8.3335 1.19048 8.3335H22.619C23.2765 8.3335 23.8095 8.86649 23.8095 9.52397C23.8095 10.1815 23.2765 10.7144 22.619 10.7144H1.19048C0.532995 10.7144 0 10.1815 0 9.52397ZM1.19048 16.667C0.532994 16.667 0 17.2 0 17.8575C0 18.5149 0.532995 19.0479 1.19048 19.0479H22.619C23.2765 19.0479 23.8095 18.5149 23.8095 17.8575C23.8095 17.2 23.2765 16.667 22.619 16.667H1.19048Z" fill="#525862"/>
</svg>
