<svg width="41" height="43" viewBox="0 0 41 43" fill="none" xmlns="http://www.w3.org/2000/svg">
<path d="M20.8899 1.02344C18.188 1.02344 9.96583 1.02344 5.42012 5.17396C2.71317 7.87068 1.4375 11.7673 1.4375 17.4044V20.4758C1.4375 26.1129 2.71317 30.0095 5.45186 32.737C6.81557 33.9809 8.67481 34.975 10.9477 35.662L11.6756 35.8811V41.3359C11.6756 41.9758 11.8609 41.9758 11.9223 41.9758C12.0483 41.9758 12.25 41.9359 12.6329 41.596C12.725 41.5049 13.4007 40.7739 16.6871 37.0922L17.0189 36.7206L17.5154 36.7523C18.616 36.8209 19.7514 36.8568 20.8899 36.8568C23.5917 36.8568 31.8139 36.8568 36.3596 32.7052C39.0656 30.0085 40.3423 26.1119 40.3423 20.4758V17.4044C40.3423 11.7673 39.0666 7.87068 36.3279 5.14325C31.8139 1.02344 23.5917 1.02344 20.8899 1.02344Z" fill="#525862"/>
<path d="M30.5657 25.4461C29.4282 24.4878 28.903 24.1981 27.3325 23.2551C26.6782 22.863 25.6811 22.5241 25.1579 22.5241C24.8006 22.5241 24.3726 22.7975 24.1105 23.0596C23.4389 23.7312 23.2188 24.5718 22.0414 24.5718C20.8896 24.5718 18.8778 23.3995 17.4343 21.8843C15.919 20.4407 14.7468 18.4289 14.7468 17.2771C14.7468 16.0997 15.572 15.8643 16.2436 15.1916C16.5057 14.9305 16.7944 14.5026 16.7944 14.1453C16.7944 13.6221 16.4555 12.6403 16.0634 11.9861C15.1205 10.4145 14.8318 9.8893 13.8724 8.75287C13.5479 8.36792 13.1783 8.19183 12.7913 8.1908C12.1371 8.18978 11.2781 8.51433 10.6966 8.9474C9.82225 9.59956 8.90799 10.4872 8.6633 11.5929C8.63054 11.7434 8.61109 11.8949 8.60494 12.0465C8.55785 13.1983 9.01037 14.3674 9.49873 15.3575C10.6485 17.6907 12.1698 19.9493 13.8253 21.9662C14.3547 22.6112 14.9311 23.2111 15.5279 23.7906C16.1074 24.3864 16.7074 24.9628 17.3524 25.4932C19.3693 27.1487 21.6278 28.6701 23.9611 29.8198C24.9419 30.303 26.0967 30.7474 27.2372 30.7146C27.4 30.7095 27.5628 30.6911 27.7256 30.6552C28.8313 30.4116 29.719 29.4963 30.3711 28.6219C30.8042 28.0404 31.1287 27.1825 31.1277 26.5272C31.1267 26.1402 30.9506 25.7706 30.5657 25.4461ZM31.1277 20.4765C30.5626 20.4765 30.1039 20.0178 30.1039 19.4527V18.4289C30.1039 13.3488 25.9698 9.21461 20.8896 9.21461C20.3245 9.21461 19.8658 8.75594 19.8658 8.1908C19.8658 7.62566 20.3245 7.16699 20.8896 7.16699C27.099 7.16699 32.1515 12.2195 32.1515 18.4289V19.4527C32.1515 20.0178 31.6929 20.4765 31.1277 20.4765ZM24.8395 18.4289C24.3849 18.4289 23.9693 18.1238 23.8495 17.6631C23.5689 16.5871 22.7294 15.7465 21.6575 15.4701C21.1097 15.3278 20.7811 14.7698 20.9224 14.2221C21.0637 13.6754 21.6206 13.3467 22.1704 13.487C23.96 13.9508 25.3627 15.3523 25.8305 17.1461C25.9728 17.6938 25.6452 18.2518 25.0985 18.3951C25.0115 18.4176 24.9245 18.4289 24.8395 18.4289Z" fill="#89919F"/>
<path d="M28.056 19.4523C27.4908 19.4523 27.0322 18.9937 27.0322 18.4285C27.0322 15.1646 24.4788 12.472 21.219 12.3C20.6538 12.2703 20.2208 11.7881 20.2505 11.224C20.2802 10.6588 20.7706 10.2247 21.3265 10.2554C25.6746 10.4848 29.0798 14.0753 29.0798 18.4285C29.0798 18.9937 28.6211 19.4523 28.056 19.4523Z" fill="#89919F"/>
<path d="M20.4767 0C15.8696 0 8.69061 0.423857 4.31689 4.41876C1.22499 7.49736 0.000511979 11.8158 0.000511979 17.4048C0.000511979 17.8675 -0.00153579 18.3835 0.00255945 18.9405C-0.00153579 19.4964 0.000511979 20.0124 0.000511979 20.4752C0.000511979 26.0641 1.22499 30.3826 4.31689 33.4612C5.98161 34.9815 8.05789 35.9818 10.2386 36.6411V41.3363C10.2386 42.9703 11.3126 43 11.5092 43H11.5184C12.0241 42.998 12.4613 42.7502 12.8995 42.3611C13.0643 42.2147 14.9676 40.0934 17.0377 37.7735C18.2704 37.8523 19.4416 37.881 20.4757 37.881C25.0828 37.881 32.2608 37.4561 36.6355 33.4612C39.7264 30.3836 40.9519 26.0641 40.9519 20.4752C40.9519 20.0124 40.9539 19.4964 40.9498 18.9395C40.9539 18.3825 40.9519 17.8675 40.9519 17.4037C40.9519 11.8148 39.7274 7.49633 36.6355 4.41774C32.2618 0.423857 25.0838 0 20.4767 0ZM37.8815 20.1189V20.4752C37.8815 25.498 36.8116 28.9206 34.5172 31.2375C30.5428 34.8095 22.9717 34.8095 20.4757 34.8095C19.716 34.8095 18.4833 34.8085 17.0285 34.7071C16.6241 35.1617 12.2862 40.0135 12.2862 40.0135V34.011C10.1321 33.4939 8.00363 32.6462 6.43618 31.2385C4.14182 28.9206 3.07194 25.498 3.07194 20.4752V20.1189C3.07194 19.7595 3.07092 19.3715 3.07399 18.918C3.07092 18.5084 3.07092 18.1214 3.07194 17.761V17.4048C3.07194 12.382 4.14182 8.95936 6.43618 6.64248C10.4096 3.0704 17.9817 3.07041 20.4767 3.07041C22.9717 3.07041 30.5428 3.0704 34.5162 6.64248C36.8116 8.95936 37.8804 12.382 37.8804 17.4048V17.761C37.8804 18.1204 37.8815 18.5084 37.8784 18.962C37.8815 19.3725 37.8815 19.7595 37.8815 20.1189Z" fill="#89919F"/>
</svg>
