<svg width="36" height="36" viewBox="0 0 36 36" fill="none" xmlns="http://www.w3.org/2000/svg">
<path d="M31.7143 0H4.28571C1.92 0 0 1.92 0 4.28571V31.7143C0 34.08 1.92 36 4.28571 36H31.7143C34.08 36 36 34.08 36 31.7143V4.28571C36 1.92 34.08 0 31.7143 0ZM28.9029 24.8571L25.7057 24.8486C25.7057 24.8486 25.6371 24.8571 25.5257 24.8571C25.2686 24.8571 24.7371 24.7886 24.1114 24.36C22.9886 23.58 21.9171 21.6429 21.0686 21.6429C21.0086 21.6429 20.9571 21.6514 20.9057 21.6686C20.1686 21.9 19.9457 22.6371 19.9457 23.5371C19.9457 23.8543 19.7229 24 19.1229 24H17.4686C15.6171 24 13.8257 23.9571 11.8114 21.7543C8.84571 18.5057 6.06857 12.7286 6.06857 12.7286C6.06857 12.7286 5.91429 12.3943 6.07714 12.1971C6.23143 12.0171 6.59143 12 6.72857 12C6.76286 12 6.78 12 6.78 12H10.2086C10.2086 12 10.5257 12.06 10.7571 12.2314C10.9543 12.3771 11.0571 12.6429 11.0571 12.6429C11.0571 12.6429 11.64 13.7743 12.3686 15.0514C13.5943 17.16 14.2543 17.8629 14.7257 17.8629C14.8029 17.8629 14.88 17.8457 14.9571 17.8029C15.66 17.4171 15.4543 14.2971 15.4543 14.2971C15.4543 14.2971 15.4629 13.1657 15.0943 12.6686C14.8114 12.2743 14.2714 12.1629 14.0314 12.1286C13.8429 12.1029 14.1514 11.6571 14.5629 11.4514C15.0943 11.1943 15.9771 11.1429 17.04 11.1429H17.5543C18.5571 11.16 18.5829 11.2629 18.9771 11.3571C20.16 11.64 19.7571 12.7457 19.7571 15.3943C19.7571 16.2429 19.6029 17.4343 20.2114 17.8371C20.2543 17.8629 20.3143 17.88 20.3914 17.88C20.7857 17.88 21.6343 17.3743 22.9886 15.0857C23.7429 13.7829 24.3257 12.4886 24.3257 12.4886C24.3257 12.4886 24.4543 12.2571 24.6514 12.1371C24.84 12.0257 24.84 12.0257 25.0886 12.0257H25.1143C25.3886 12.0257 28.1143 12 28.7143 12H28.7829C29.3571 12 29.88 12.0086 29.9743 12.36C30.1114 12.8914 29.5543 13.8429 28.0886 15.8143C25.6714 19.0457 25.3971 18.8057 27.4029 20.6743C29.3229 22.4571 29.7171 23.3229 29.7857 23.4343C30.5829 24.7543 28.9029 24.8571 28.9029 24.8571Z" fill="#89919F"/>
</svg>
