<svg width="41" height="41" viewBox="0 0 41 41" fill="none" xmlns="http://www.w3.org/2000/svg">
<path d="M1.06445 40.2384L3.8226 30.1692C2.12102 27.2227 1.22621 23.879 1.22724 20.4543C1.23236 9.74015 9.95112 1.02344 20.6663 1.02344C25.8662 1.02549 30.7457 3.04956 34.4161 6.72196C38.0854 10.3954 40.1064 15.2769 40.1044 20.4697C40.1003 31.1838 31.3794 39.9016 20.6663 39.9016C20.6653 39.9016 20.6663 39.9016 20.6663 39.9016H20.6581C17.4055 39.9006 14.2081 39.0846 11.3691 37.5356L1.06445 40.2384Z" fill="#89919F"/>
<path d="M1.06419 40.7505C0.929049 40.7505 0.798001 40.6973 0.700739 40.599C0.572763 40.469 0.522597 40.2796 0.570716 40.1045L3.27255 30.2391C1.5976 27.2639 0.714049 23.8853 0.716096 20.4555C0.720191 9.45777 9.66931 0.511719 20.666 0.511719C26.0001 0.513766 31.0116 2.59108 34.7782 6.36074C38.5448 10.1314 40.618 15.142 40.616 20.4699C40.6119 31.4666 31.6618 40.4137 20.666 40.4137C17.4011 40.4126 14.171 39.6069 11.3043 38.0825L1.19422 40.7331C1.15122 40.7454 1.10822 40.7505 1.06419 40.7505Z" fill="#89919F"/>
<path d="M32.0933 9.04181C29.0424 5.98881 24.9871 4.30669 20.6707 4.30566C11.7595 4.30566 4.51191 11.5501 4.50781 20.4552C4.50679 23.5072 5.36065 26.4783 6.97827 29.0511L7.36322 29.6624L5.73024 35.6219L11.8455 34.0187L12.4362 34.3688C14.9159 35.841 17.76 36.6191 20.6594 36.6202H20.6656C29.5707 36.6202 36.8182 29.3747 36.8213 20.4685C36.8223 16.1532 35.1443 12.0948 32.0933 9.04181Z" fill="#525862"/>
<path fill-rule="evenodd" clip-rule="evenodd" d="M15.8068 12.3313C15.4434 11.5225 15.0605 11.5061 14.7134 11.4918C14.4298 11.4795 14.1063 11.4805 13.7828 11.4805C13.4593 11.4805 12.933 11.6023 12.4877 12.0886C12.0423 12.5749 10.7871 13.7493 10.7871 16.1388C10.7871 18.5284 12.5276 20.8381 12.7702 21.1616C13.0129 21.4852 16.1304 26.5458 21.0672 28.4931C25.1696 30.1108 26.005 29.7893 26.8957 29.7084C27.7864 29.6275 29.7696 28.5341 30.174 27.3997C30.5784 26.2653 30.5784 25.2937 30.4576 25.091C30.3357 24.8883 30.0122 24.7675 29.5269 24.5238C29.0416 24.2802 26.6531 23.1058 26.2077 22.9441C25.7624 22.7823 25.4388 22.7014 25.1143 23.1878C24.7908 23.673 23.8601 24.7675 23.5765 25.091C23.2929 25.4156 23.0093 25.4565 22.5241 25.2128C22.0388 24.9692 20.4744 24.4573 18.6182 22.8028C17.1747 21.5159 16.2 19.9259 15.9164 19.4396C15.6328 18.9543 15.8857 18.6912 16.1293 18.4485C16.3474 18.2305 16.6146 17.8813 16.8583 17.5978C17.1009 17.3142 17.1818 17.1114 17.3436 16.7879C17.5053 16.4634 17.4245 16.1798 17.3026 15.9371C17.1828 15.6935 16.2389 13.2916 15.8068 12.3313Z" fill="#89919F"/>
</svg>
