<svg width="180" height="40" viewBox="0 0 180 40" fill="none" xmlns="http://www.w3.org/2000/svg">
<rect x="0.901075" y="0.901075" width="178.198" height="38.1978" rx="19.0989" stroke="#525862" stroke-width="1.80215"/>
<path d="M45.1083 25.2595C43.5128 25.2595 42.2729 24.7645 41.3887 23.7745L42.6141 22.5491C43.2197 23.3276 44.0222 23.7169 45.0218 23.7169C45.5793 23.7169 46.0647 23.5679 46.4779 23.2699C46.8912 22.9624 47.0979 22.5491 47.0979 22.0301C47.0979 21.0112 46.3001 20.5018 44.7046 20.5018H43.9838V18.9736H44.7335C46.1271 18.9736 46.824 18.469 46.824 17.4598C46.824 17.0465 46.6413 16.7101 46.2761 16.4506C45.9205 16.1815 45.5072 16.0469 45.0362 16.0469C44.1327 16.0469 43.4215 16.3689 42.9025 17.0129L41.7635 15.8883C42.5613 14.9849 43.6858 14.5331 45.1371 14.5331C46.1944 14.5331 47.0402 14.7782 47.6746 15.2684C48.3089 15.749 48.6261 16.417 48.6261 17.2724C48.6261 17.8683 48.4627 18.3729 48.1359 18.7862C47.8091 19.1995 47.3862 19.4734 46.8672 19.608V19.6512C47.4823 19.7954 47.9869 20.0837 48.381 20.5163C48.7751 20.9488 48.9721 21.4918 48.9721 22.1454C48.9721 23.1162 48.5925 23.8803 47.8332 24.4377C47.0835 24.9856 46.1752 25.2595 45.1083 25.2595ZM49.517 25L53.9575 14.7926H55.529L59.9263 25H57.8502L56.8986 22.6644H52.4726L51.5499 25H49.517ZM53.0925 21.1074H56.2643L54.6928 16.9552L53.0925 21.1074ZM60.9363 25V14.7926H69.255V25H67.4384V16.3785H62.7528V25H60.9363ZM71.5098 25V14.7926H73.3264V22.2607H73.3696L78.1561 14.7926H80.1169V25H78.3003V17.5896H78.2715L73.4994 25H71.5098ZM91.1162 16.0902L89.7321 17.1859C89.4822 16.8399 89.141 16.5804 88.7085 16.4074C88.2856 16.2247 87.8531 16.1334 87.411 16.1334C86.3729 16.1334 85.5223 16.489 84.8591 17.2003C84.2055 17.9115 83.8787 18.8006 83.8787 19.8675C83.8787 20.9824 84.1911 21.8907 84.8159 22.5923C85.4502 23.2844 86.2912 23.6304 87.3389 23.6304C88.4154 23.6304 89.2419 23.2363 89.8186 22.4482L91.2748 23.4718C90.3232 24.6636 89.0065 25.2595 87.3245 25.2595C85.7289 25.2595 84.4218 24.7597 83.403 23.7601C82.3842 22.7509 81.8748 21.4534 81.8748 19.8675C81.8748 18.2624 82.3938 16.9744 83.4318 16.0037C84.4795 15.0233 85.8058 14.5331 87.411 14.5331C88.1222 14.5331 88.819 14.6677 89.5014 14.9368C90.1935 15.1963 90.7317 15.5808 91.1162 16.0902ZM91.1636 25L95.6041 14.7926H97.1756L101.573 25H99.4967L98.5452 22.6644H94.1191L93.1964 25H91.1636ZM94.7391 21.1074H97.9108L96.3394 16.9552L94.7391 21.1074ZM103.786 25V16.3785H100.657V14.7926H108.731V16.3785H105.602V25H103.786ZM109.918 25V14.7926H111.735V18.8439H113.248C114.402 18.8439 115.329 19.0986 116.031 19.608C116.742 20.1174 117.098 20.8863 117.098 21.9147C117.098 22.9335 116.742 23.7025 116.031 24.2215C115.329 24.7405 114.411 25 113.277 25H109.918ZM111.735 23.4718H113.104C114.546 23.4718 115.267 22.9576 115.267 21.9291C115.267 21.4197 115.079 21.0353 114.705 20.7758C114.33 20.5066 113.796 20.3721 113.104 20.3721H111.735V23.4718ZM127.483 16.0902L126.099 17.1859C125.849 16.8399 125.508 16.5804 125.075 16.4074C124.652 16.2247 124.22 16.1334 123.778 16.1334C122.74 16.1334 121.889 16.489 121.226 17.2003C120.572 17.9115 120.246 18.8006 120.246 19.8675C120.246 20.9824 120.558 21.8907 121.183 22.5923C121.817 23.2844 122.658 23.6304 123.706 23.6304C124.782 23.6304 125.609 23.2363 126.185 22.4482L127.642 23.4718C126.69 24.6636 125.373 25.2595 123.691 25.2595C122.096 25.2595 120.789 24.7597 119.77 23.7601C118.751 22.7509 118.242 21.4534 118.242 19.8675C118.242 18.2624 118.761 16.9744 119.799 16.0037C120.846 15.0233 122.173 14.5331 123.778 14.5331C124.489 14.5331 125.186 14.6677 125.868 14.9368C126.56 15.1963 127.099 15.5808 127.483 16.0902ZM127.92 25L130.659 20.6748C129.948 20.4922 129.395 20.1558 129.001 19.6656C128.607 19.1755 128.41 18.5603 128.41 17.8202C128.41 16.7822 128.746 16.0181 129.419 15.5279C130.101 15.0377 131.048 14.7926 132.259 14.7926H135.604V25H133.787V20.9199H132.519L130.126 25H127.92ZM132.432 19.435H133.787V16.3208H132.375C130.933 16.3208 130.212 16.8351 130.212 17.8635C130.212 18.3921 130.409 18.7862 130.803 19.0457C131.197 19.3052 131.74 19.435 132.432 19.435Z" fill="#525862"/>
</svg>
