<svg width="13" height="13" viewBox="0 0 13 13" fill="none" xmlns="http://www.w3.org/2000/svg">
<mask id="mask0" mask-type="alpha" maskUnits="userSpaceOnUse" x="0" y="0" width="13" height="13">
<rect width="13" height="13" fill="#C4C4C4"/>
</mask>
<g mask="url(#mask0)">
<path fill-rule="evenodd" clip-rule="evenodd" d="M1.3033 1.30314C0.717514 1.88893 0.717515 2.83868 1.3033 3.42447L4.48528 6.60645L1.3033 9.78843C0.717514 10.3742 0.717514 11.324 1.3033 11.9097C1.88909 12.4955 2.83883 12.4955 3.42462 11.9097L6.6066 8.72777L9.78858 11.9097C10.3744 12.4955 11.3241 12.4955 11.9099 11.9097C12.4957 11.324 12.4957 10.3742 11.9099 9.78843L8.72792 6.60645L11.9099 3.42446C12.4957 2.83868 12.4957 1.88893 11.9099 1.30314C11.3241 0.717358 10.3744 0.717359 9.78858 1.30314L6.6066 4.48513L3.42462 1.30314C2.83883 0.717358 1.88909 0.717358 1.3033 1.30314Z" fill="#525862"/>
</g>
</svg>
