<svg width="42" height="41" viewBox="0 0 42 41" fill="none" xmlns="http://www.w3.org/2000/svg">
<path d="M21.3508 40.9575C32.6609 40.9575 41.8296 31.7888 41.8296 20.4787C41.8296 9.16865 32.6609 0 21.3508 0C10.0407 0 0.87207 9.16865 0.87207 20.4787C0.87207 31.7888 10.0407 40.9575 21.3508 40.9575Z" fill="#525862"/>
<path d="M8.49898 21.4807C10.8929 20.162 13.5652 19.0615 16.0621 17.9553C20.3577 16.1434 24.6704 14.363 29.0265 12.7054C29.874 12.4229 31.397 12.1468 31.5463 13.4028C31.4645 15.1807 31.1282 16.9482 30.8974 18.7157C30.3119 22.6026 29.6349 26.4761 28.975 30.3502C28.7475 31.6405 27.1311 32.3087 26.0967 31.4829C23.6109 29.8038 21.106 28.1411 18.652 26.4231C17.848 25.6061 18.5936 24.4332 19.3114 23.8499C21.3588 21.8321 23.53 20.118 25.4704 17.9961C26.4707 16.6562 24.502 17.7345 23.9372 18.1237C21.1344 20.0552 18.4001 22.1046 15.445 23.8021C13.9356 24.6331 12.1763 23.923 10.6675 23.4593C9.31471 22.8992 7.33237 22.3348 8.49881 21.4809L8.49898 21.4807Z" fill="#F5F3ED"/>
</svg>
